<svg width="85" height="85" fill="none" xmlns="http://www.w3.org/2000/svg"><g filter="url(#a)"><rect width="85" height="85" rx="42.5" fill="#F9F9F9"/></g><path d="M40.94 58.06a1.5 1.5 0 0 0 2.12 0l9.547-9.545a1.5 1.5 0 1 0-2.122-2.122L42 54.88l-8.485-8.486a1.5 1.5 0 1 0-2.122 2.122l9.546 9.546ZM40.5 56v1h3v-1h-3ZM40.94 45.06a1.5 1.5 0 0 0 2.12 0l9.547-9.545a1.5 1.5 0 1 0-2.122-2.122L42 41.88l-8.485-8.486a1.5 1.5 0 1 0-2.122 2.122l9.546 9.546ZM40.5 43v1h3v-1h-3Z" fill="#12B7B6"/><defs><filter id="a" x="-10" y="-10" width="105" height="105" filterUnits="userSpaceOnUse" color-interpolation-filters="sRGB"><feFlood flood-opacity="0" result="BackgroundImageFix"/><feBlend in="SourceGraphic" in2="BackgroundImageFix" result="shape"/><feColorMatrix in="SourceAlpha" values="0 0 0 0 0 0 0 0 0 0 0 0 0 0 0 0 0 0 127 0" result="hardAlpha"/><feOffset dx="10" dy="10"/><feGaussianBlur stdDeviation="10"/><feComposite in2="hardAlpha" operator="arithmetic" k2="-1" k3="1"/><feColorMatrix values="0 0 0 0 0 0 0 0 0 0 0 0 0 0 0 0 0 0 0.08 0"/><feBlend in2="shape" result="effect1_innerShadow_318_172"/><feColorMatrix in="SourceAlpha" values="0 0 0 0 0 0 0 0 0 0 0 0 0 0 0 0 0 0 127 0" result="hardAlpha"/><feOffset dx="-10" dy="-10"/><feGaussianBlur stdDeviation="10"/><feComposite in2="hardAlpha" operator="arithmetic" k2="-1" k3="1"/><feColorMatrix values="0 0 0 0 1 0 0 0 0 1 0 0 0 0 1 0 0 0 1 0"/><feBlend in2="effect1_innerShadow_318_172" result="effect2_innerShadow_318_172"/></filter></defs></svg>