<svg width="119" height="133" fill="none" xmlns="http://www.w3.org/2000/svg"><path d="M114.834 97.526v34.771H119V94.428l-13.91-3.054V68.02l-25.255-9.659-2.27 2.752V22.28L57.767 0 37.29 21.833V59.48L15.39 68.917V97.23L0 100.833v31.464h4.166v-28.414l15.392-3.606v-4.028h-.003V71.418l17.736-7.64v18.113l-4.166.848-.196 49.558h4.166L37.29 85.9l12.141-2.105-.02 48.502h4.18l-.005-47.919 5.012 2.73v45.189h4.166v-47.44l-2.96-1.612V8.399l13.589 15.296v42.468l-7.102 8.609v57.525h4.166V76.109l7.967-9.657-.13 65.845h4.166l.13-68.656 18.327 7.01v19.813l-.088 3.992 14.004 3.07ZM41.457 66.279l7.967 9.293v3.852l-7.967 1.62V66.279Zm12.136 13.588v-5.67L41.457 60.042V23.304L55.641 8.182V80.98l-2.048-1.114Z" fill="url(#a)"/><defs><linearGradient id="a" x1="59.5" y1="0" x2="59.5" y2="135.073" gradientUnits="userSpaceOnUse"><stop offset=".274" stop-color="#6EEE40"/><stop offset=".772" stop-color="#52C9A6"/><stop offset=".828" stop-color="#52C9A6"/></linearGradient></defs></svg>