<svg width="13" height="22" fill="none" xmlns="http://www.w3.org/2000/svg"><path d="M12.624 5.488a.441.441 0 0 0-.326-.128H9.869c-.16-.789-.464-1.473-.909-2.052h3.309a.442.442 0 0 0 .327-.128.446.446 0 0 0 .127-.328V1.4a.446.446 0 0 0-.127-.328.443.443 0 0 0-.327-.128H.454a.442.442 0 0 0-.326.128.445.445 0 0 0-.128.328v1.894c0 .124.045.23.135.321.09.09.196.135.32.135h2.058c1.998 0 3.266.537 3.806 1.61H.454a.441.441 0 0 0-.326.129.445.445 0 0 0-.128.327V7.27c0 .133.043.242.128.327a.441.441 0 0 0 .326.128h6.064c-.208.78-.693 1.373-1.456 1.782-.762.408-1.768.612-3.017.612H.455a.436.436 0 0 0-.32.136.439.439 0 0 0-.135.32v1.81c0 .124.043.228.128.313 1.817 1.938 4.175 4.65 7.071 8.136a.418.418 0 0 0 .356.171h2.768c.2 0 .337-.085.412-.256.095-.171.077-.333-.056-.485-2.764-3.4-4.937-5.946-6.518-7.637 1.61-.19 2.916-.712 3.92-1.567 1.002-.855 1.613-1.967 1.83-3.334h2.387a.44.44 0 0 0 .326-.129.444.444 0 0 0 .128-.327V5.816a.444.444 0 0 0-.128-.328Z" fill="#fff"/></svg>