<svg width="103" height="183" fill="none" xmlns="http://www.w3.org/2000/svg"><path fill-rule="evenodd" clip-rule="evenodd" d="m28.832 150.22.381-.765.477.909c1.193 4.255 8.823 5.881 10.827-.526.858.908 1.24 2.247 2.384 3.108 2.91 2.151 8.108 1.386 9.062-3.156l.43.526c1 1.291.715 1.721 1.907 2.63 5.628 4.351 9.538-3.108 9.634-3.156.524 2.534 2.528 4.495 5.77 4.351 1.384-.048 2.671-.669 3.482-1.339 1.192-1.004 1.002-1.769 2.146-2.964 1.527 6.12 9.873 5.164 10.779.382l.334-.717.524.909c1.765 5.02 8.68 4.925 10.636.047l.286-.908.525.717c1.192 5.355 9.061 5.069 10.969-.621 1.24 2.008 1.097 2.964 3.339 3.968 6.247 2.678 10.778-4.542 6.104-9.419l-.81-.909c1.43-.669 2.813-2.438 2.575-4.973-.286-2.773-2.432-3.299-2.671-4.255-.048-.096-.143-.144-.191-.191 3.768-3.539 3.816-6.455-.524-9.563 1.431-1.435 3.195-2.009 3.004-5.117-.143-2.39-1.717-3.825-3.672-4.446.477-.479-.095.047.668-.574 3.434-2.582 4.292-6.551-.096-8.75l-1.049-.574c-.048-.144-.191-.096-.286-.144 2.289-.669 4.245-2.008 4.006-4.972-.191-2.343-2.146-4.16-4.626-4.208-5.914-.048-6.391 7.698-.62 9.228l-1.574.813c-.477.287-.906.526-1.288.909-.81.765-1.43 1.721-1.478 3.108-.095 3.394 2.003 3.777 3.529 5.164-7.917 2.677-1.144 9.945-.906 9.563.048-.096.143.143.238.239-3.386 1.291-5.103 5.259-.524 9.371-1.145 1.339-2.862 1.817-2.957 4.782-.048 2.486 1.192 4.064 2.623 4.734-.763 1.004-.858.621-1.669 1.721l-1.288 2.056c-.429-.861-.715-1.482-1.24-2.104l-1.526-1.817c2.48-1.1 3.577-5.02 1.621-7.507-.238-.287-.667-.669-.906-.956l-1.001-.956c1.478-1.148 2.861-2.439 2.718-5.117-.191-2.629-1.669-3.251-3.148-4.446.048-.096.191-.144.239-.192l1.908-1.864c.715-1.005.953-2.056.763-3.443-.239-1.769-1.193-2.63-2.48-3.586l-1.145-.861c2.099-.574 3.72-2.152 3.434-5.068-.382-3.586-3.195-3.06-3.625-4.447-.047-.191-.19-.144-.286-.239 5.866-1.1 4.483-9.229-1.192-8.99-5.008.192-6.677 7.412-.525 9.085l-.858.574c-4.006 2.487-5.103 7.316.286 9.181-1.765 1.482-3.577 1.53-3.768 4.733-.19 3.252 1.43 3.3 3.005 5.164-1.67 1.148-3.1 2.296-3.196 4.782-.047 2.725 1.336 3.634 2.719 4.781-1.24 1.387-2.814 1.722-2.957 4.782-.095 2.486 1.192 4.112 2.623 4.781l-2.862 3.921c-1.383-2.677-.763-1.817-2.814-3.681 2.099-2.104 3.72-4.83 1.67-7.938-.382-.574-1.574-1.1-1.717-1.673-.048-.144-.143-.144-.239-.192 1.479-1.338 2.862-2.343 2.671-5.116-.143-2.151-1.717-3.586-3.195-4.447 1.144-1.243 3.195-1.769 3.004-5.164-.143-2.582-1.716-3.825-3.767-4.494 1.669-1.291 3.72-1.722 3.577-5.069-.048-1.291-.62-2.39-1.288-3.06-.477-.478-.668-.526-1.288-.908l-1.574-1.004c6.296-1.626 4.436-9.372-.906-9.133-5.294.239-6.581 7.698-.572 9.133l-1.574 1.004c-3.959 2.295-3.148 7.124 1.002 8.846-1.67 1.243-3.577 1.577-3.768 4.685-.19 3.443 1.86 3.826 3.005 5.164-4.15 2.439-4.15 6.79-.43 9.563-1.001 1.1-1.097.479-2.003 1.865-1.764 2.678-.572 6.168 1.622 7.794-1.574 1.435-1.813 1.626-2.671 3.682-.048-.096-.143-.191-.19-.239l-2.815-3.204c4.96-5.451 2.146-7.029-.334-9.898 3.673-2.916 3.72-6.837-.477-9.563 1.24-1.482 3.244-1.817 3.005-5.164-.19-2.677-1.764-3.681-3.768-4.494 1.622-1.339 3.864-1.961 3.53-5.403-.334-3.06-2.242-3.3-4.34-4.543 6.486-1.96 4.674-9.037-.287-9.228-2.527-.096-4.674 1.721-4.912 4.112-.286 3.251 1.574 4.351 3.959 5.021-1.956 1.53-4.054 1.625-4.197 4.925-.096 2.964 1.669 3.92 3.529 4.972-1.908.718-3.577 2.104-3.768 4.543-.19 2.869 1.622 3.729 3.005 5.164-1.526 1.195-3.005 1.817-3.196 4.447-.19 2.486 1.336 4.112 2.719 5.116-1.383 1.386-2.862 2.63-2.957 4.829-.095 2.439 1.192 3.873 2.67 4.543-.715 1.338.048.047-.572.86-.095.096-.333.335-.381.431-.19.191-.43.382-.716.717-.763.956-.667 1.004-.953 2.056l-.907-1.291c-.238-.431-.238-.526-.524-.956-.716-1.005-.906-.766-1.67-1.674 1.527-.717 2.814-2.439 2.576-5.116-.239-2.678-1.765-3.108-2.91-4.447 3.673-3.251 4.007-7.507-.524-9.372l.477-.478c1.478-1.387 2.719-2.534 2.623-4.877-.143-2.486-1.764-3.777-3.72-4.447 1.67-1.53 3.863-2.104 3.53-5.499-.287-2.916-2.48-3.251-4.293-4.494 6.343-1.817 4.817-9.276-.62-9.229-5.199.048-6.916 7.555-.572 9.181l-.525.335-.286.143-2.003 1.291c-.62.574-1.288 1.913-1.336 3.156-.095 2.917 1.908 3.49 3.482 5.212-1.955.574-3.53 2.056-3.672 4.399-.144 2.725 1.526 3.586 2.957 5.116-1.479 1.195-3.1 1.865-3.148 4.781-.048 2.582 1.43 3.491 2.718 4.782l-.19.191-.191.191c-3.1 2.917-3.959 7.173.095 9.085l-.954 1.1c-.906.909-1.335 1.626-1.621 2.917l-3.1-3.969c1.478-.669 2.861-2.438 2.623-5.02-.19-2.2-1.526-3.156-2.91-4.495 1.431-1.339 2.958-2.2 2.72-5.164-.24-2.773-1.623-3.251-3.149-4.447.382-.382 0 0 .62-.574 2.29-2.056 3.482-4.877 1.002-7.602l-2.337-1.817c5.008-1.578 4.483-8.511-.382-9.085l-2.05-.048c-2.147.43-3.863 2.104-3.863 4.734.047 2.917 2.098 3.395 3.529 4.781-3.863 1.339-4.674 4.925-2.814 7.507.81 1.196 1.24 1.243 2.098 2.056-4.244 3.06-4.483 5.929-.429 9.563-1.097 1.387-2.814 2.009-2.91 4.782-.095 2.821 1.622 3.873 2.576 5.164-1.955.813-1.287 1.052-2.67 3.012l-.43.526c-.19-.956-.524-1.626-1.097-2.295l-1.526-1.769c1.526-.67 2.814-2.439 2.623-4.925-.238-2.295-1.526-3.06-2.909-4.447 1.383-1.052 2.91-2.582 2.718-5.116-.238-2.582-1.573-3.251-3.1-4.447 1.145-1.147 3.291-2.199 2.91-5.403-.334-2.725-2.433-3.49-3.625-4.59 2.146-.574 3.863-2.63 3.386-5.403-.524-2.965-2.098-2.869-4.388-4.112 2.48-.67 4.34-1.722 4.245-4.782-.047-2.534-2.194-4.399-4.578-4.495-5.342-.143-7.011 7.651-.859 9.085-1.05.957-1.812.861-2.814 2.009-4.054 4.542 1.86 7.746 2.242 8.08-2.003.526-3.577 2.009-3.72 4.495-.191 2.917 1.287 3.682 2.623 4.781l.382.383c-1.622 1.148-3.148 2.247-3.196 4.829-.048 2.774 1.335 3.586 2.718 4.782-1.144 1.386-2.861 1.769-2.956 4.781-.048 3.204 1.478 3.73 2.575 5.164-2.05 1.148-2.003 2.343-3.005 3.491-.572-1.913-1.049-1.961-1.86-2.965l-1.001-1.147c3.624-1.722 3.338-6.073.572-8.607l-.81-.765c1.478-1.195 2.86-2.439 2.67-5.116-.19-2.582-1.67-3.252-3.195-4.447 1.335-1.434 3.195-1.913 3.004-5.164-.143-2.63-1.812-3.634-3.767-4.542 1.86-1.244 3.91-1.913 3.529-5.356-.334-3.06-2.29-3.251-4.436-4.494 6.773-1.77 4.579-9.133-.286-9.277-2.623-.095-4.626 1.96-4.817 4.16-.238 2.965 1.622 4.447 3.911 4.973l-2.861 1.913c-2.004 2.247-2.051 6.168 2.241 7.889-1.67 1.339-3.53 1.435-3.72 4.686-.19 3.395 1.908 3.825 3.005 5.164-4.388 2.773-4.15 6.79-.525 9.563-.763.813-1.24.765-1.955 1.913-1.765 2.725-1.05 5.785 1.669 7.746-1.002.956-1.956 1.721-2.432 3.251l-.287.861-.524-.813c-.334-1.53-1.479-2.391-2.433-3.347 1.527-.813 2.814-2.773 2.576-5.212-.286-2.821-1.813-3.108-2.91-4.447 3.864-3.06 3.864-6.646-.476-9.563 1.097-1.243 3.195-1.817 3.004-5.164-.143-2.486-1.86-3.873-3.767-4.494 1.669-1.291 3.72-1.817 3.577-5.117-.143-3.251-3.148-3.968-4.102-4.781 6.248-1.865 4.435-9.18-.906-9.133-5.008.048-6.916 7.603-.572 9.181-.477.382.047.048-.811.526-.477.287-.286.143-.763.43-1.431.813-2.576 1.817-2.623 3.969-.048 2.916 1.335 4.016 3.576 4.877-1.812 1.147-3.577 2.008-3.767 4.686-.239 3.299 1.669 3.682 3.004 5.164-4.006 3.012-4.674 6.12-.477 9.563l-.62.574c-3.672 3.347-2.67 7.411.334 8.798-.62 1.243-.81.908-1.669 2.008-.62.813-.668 1.1-.954 1.96-.047-.095-.143-.191-.19-.239-2.147-3.299-1.002-1.339-2.862-3.586 1.478-.813 2.814-2.439 2.528-5.116-.239-2.582-1.813-3.156-2.91-4.447 3.816-3.251 3.959-6.646-.429-9.563 1.192-1.434 3.148-2.104 2.957-5.116-.143-2.487-1.717-3.825-3.72-4.447 1.622-1.53 3.863-2.056 3.53-5.499-.192-2.104-1.622-3.108-2.958-3.777l-1.335-.717c6.534-1.722 4.674-9.277-.62-9.18-4.96.095-7.059 7.315-.572 9.18l-1.622.86c-3.863 2.056-3.482 7.412.859 8.75-.764.622-1.765 1.052-2.576 2.009-3.482 4.112 1.43 7.411 1.908 7.937-1.67 1.195-2.957 1.865-3.243 4.447-.239 3.012 1.287 3.682 2.718 5.116l-2.05 2.056c-1.574 2.2-1.002 5.929 1.716 7.411-.429.67-.095.144-.572.67-.095.095-.334.287-.382.382-2.957 3.013-2.098 6.886.43 8.703 2.194 1.625 6.057 1.53 7.964-1.005l1.288-2.103c.906 1.625.572 1.673 2.003 2.821 3.434 2.821 8.251.956 8.919-2.487Z" fill="#000"/><path fill-rule="evenodd" clip-rule="evenodd" d="M56.541 104.462h2.814c2.05-1.004 3.577-2.247 3.196-5.164-.287-2.247-2.147-3.825-4.627-3.873-5.15-.048-6.772 6.933-1.383 9.037ZM107.955 91.838c2.194-5.5-6.439-8.368-8.394-3.156-2.099 5.546 6.2 8.75 8.394 3.156ZM96.508 91.837c1.955-5.976-6.725-7.937-8.442-3.203-2.194 6.12 6.773 8.415 8.442 3.203ZM50.675 91.838c2.147-5.5-6.39-8.368-8.394-3.156-2.098 5.498 6.2 8.75 8.394 3.156ZM7.657 91.074c.763 5.45 9.73 4.495 8.87-1.434-.81-5.451-9.729-4.782-8.87 1.434Z" fill="#000"/><path fill-rule="evenodd" clip-rule="evenodd" d="M62.17 91.838c2.337-5.69-6.725-7.89-8.442-3.108-2.099 5.738 6.248 8.463 8.442 3.108ZM76.383 91.073c.715 5.164 9.729 4.638 8.87-1.482-.763-5.451-9.729-4.686-8.87 1.482ZM30.597 91.072c.62 5.212 9.634 4.59 8.823-1.386-.715-5.595-9.586-4.83-8.823 1.386ZM19.15 91.074c.715 5.212 9.682 4.638 8.87-1.483-.81-5.355-9.729-4.733-8.87 1.483ZM65.03 91.455c1.193 5.068 10.111 3.777 8.728-2.152-1.192-5.116-10.158-4.016-8.727 2.152ZM16.051 82.228c2.337-5.069-5.675-8.272-7.822-3.443-2.527 5.69 5.628 8.272 7.822 3.443Z" fill="#000"/><path fill-rule="evenodd" clip-rule="evenodd" d="M73.33 82.228c2.24-5.307-5.771-8.033-7.87-3.443-2.623 5.834 5.914 8.08 7.87 3.443ZM53.727 81.51c.334 2.057 2.576 3.778 5.199 3.204 2.05-.43 3.625-2.247 3.195-4.877-.81-5.116-9.443-4.351-8.394 1.674ZM76.716 81.892c1.431 5.116 9.73 3.108 8.251-2.391-.524-2.008-2.814-3.49-5.198-2.965-2.003.43-3.768 2.726-3.053 5.356ZM88.162 81.892c1.336 5.02 9.873 3.156 8.203-2.439-1.478-5.068-9.681-3.347-8.203 2.439ZM99.609 81.892c1.43 5.02 9.824 3.156 8.203-2.486-1.383-4.878-9.873-3.348-8.203 2.486ZM42.282 81.51c.859 4.972 9.54 4.064 8.395-1.817-1.002-4.973-9.444-4.065-8.395 1.817ZM30.931 81.893c1.479 5.069 9.682 3.156 8.203-2.486-1.24-4.734-9.92-3.3-8.203 2.486ZM19.342 81.51c.858 4.925 9.443 4.064 8.441-1.77-.381-2.15-2.623-3.681-4.96-3.298-2.098.382-3.91 2.486-3.481 5.068Z" fill="#000"/><path fill-rule="evenodd" clip-rule="evenodd" d="M107.573 72.281c2.003-4.877-5.723-7.554-7.583-3.108-2.194 5.212 5.485 8.273 7.583 3.108ZM88.592 72.665c2.242 4.542 9.539 1.673 7.392-3.49-1.907-4.543-9.92-1.626-7.392 3.49ZM38.848 72.282c1.86-5.307-5.818-7.22-7.583-3.108-2.29 5.451 5.866 8.033 7.583 3.108ZM50.341 72.281c2.051-4.83-5.961-7.794-7.678-2.773-1.765 5.02 5.532 7.794 7.678 2.773ZM76.86 71.948c1.192 4.973 9.3 3.347 7.916-2.152-.477-1.864-2.48-3.299-4.96-2.773-1.907.43-3.529 2.439-2.957 4.925ZM53.966 71.948c1.145 4.925 9.253 3.49 7.87-2.056-1.05-4.495-9.157-3.587-7.87 2.056ZM8.039 71.565c.572 4.925 9.061 4.304 8.06-1.434-.811-4.638-8.68-3.969-8.06 1.434ZM19.628 71.947c.954 4.4 8.919 3.634 7.965-1.817-.907-4.924-9.205-3.968-7.965 1.817Z" fill="#000"/><path fill-rule="evenodd" clip-rule="evenodd" d="M61.645 62.337c1.478-5.116-6.2-6.933-7.44-2.247-1.431 5.403 6.152 6.742 7.44 2.247ZM15.669 62.718c1.955-4.973-5.437-7.363-7.154-3.108-2.051 5.164 5.437 7.507 7.154 3.108ZM38.61 62.718c2.146-4.781-5.437-7.363-7.202-3.012-1.955 4.83 5.151 7.555 7.202 3.012ZM99.895 62.002c.715 4.543 8.537 3.826 7.631-1.434-.859-4.877-8.394-3.825-7.631 1.434ZM27.163 62.72c2.146-5.021-5.485-7.03-7.154-3.06-2.098 4.972 5.246 7.458 7.154 3.06ZM88.543 62.336c1.097 4.351 8.728 3.108 7.44-2.056-1.049-4.447-8.775-3.3-7.44 2.056ZM42.663 62.001c.763 4.638 8.346 3.586 7.63-1.434-.667-4.638-8.489-3.873-7.63 1.434ZM38.466 52.774c1.765-4.734-5.342-6.742-6.868-2.773-1.907 5.163 5.342 6.98 6.868 2.773ZM107.144 53.251c2.099-4.399-4.674-7.554-6.677-3.49-1.001 2.056-.048 4.351 1.717 5.068 2.575 1.004 4.626-.908 4.96-1.578ZM54.348 52.438c.954 4.447 8.251 3.156 7.154-1.721-.954-4.304-8.25-3.3-7.154 1.721ZM42.997 52.774c1.288 4.16 8.537 2.39 6.915-2.486-1.335-4.112-8.489-2.487-6.915 2.486ZM8.515 52.44c.858 4.016 8.298 3.443 7.106-1.77-1.002-4.685-8.108-2.964-7.106 1.77ZM95.745 52.773c1.717-4.83-5.484-6.55-6.867-2.773-1.86 5.068 5.437 6.837 6.867 2.773ZM19.962 52.438c.763 4.017 8.25 3.347 7.154-1.769-.859-4.112-8.156-3.347-7.154 1.77ZM8.897 43.211c1.669 3.921 8.394 1.721 6.39-2.82-1.669-3.683-8.346-1.674-6.39 2.82ZM26.782 43.21c1.765-4.208-4.53-6.646-6.343-2.964-2.098 4.255 4.531 7.22 6.343 2.964ZM43.045 42.493c.668 4.351 7.726 3.347 6.82-1.387-.763-4.016-7.535-3.394-6.82 1.387ZM88.878 42.492c.573 4.256 7.727 3.49 6.82-1.338-.81-4.065-7.487-3.443-6.82 1.338ZM54.73 43.21c1.621 4.017 8.155 1.674 6.39-2.773-1.478-3.73-8.203-1.674-6.39 2.773ZM100.324 42.493c.62 4.017 7.726 3.443 6.82-1.386-.858-4.208-7.535-3.252-6.82 1.386ZM102.757 29.105c-4.197 1.291-2.289 7.46 2.098 6.073 1.574-.478 2.671-2.39 1.86-4.351-.572-1.483-2.337-2.248-3.958-1.722ZM22.68 29.056c-4.15 1.196-2.432 7.364 1.908 6.12 3.91-1.051 2.384-7.363-1.908-6.12ZM11.09 29.2c-4.435 1.77-1.812 7.364 2.29 5.881 3.53-1.243 1.908-7.602-2.29-5.88ZM45.334 29.295c-1.002.43-1.431.095-1.956 1.578-1.144 3.299 2.099 5.307 4.531 4.16 3.577-1.722 1.43-7.412-2.575-5.738ZM56.923 29.152c-4.483 1.53-1.812 7.411 2.146 6.025 3.625-1.291 2.051-7.507-2.146-6.025ZM103.137 19.494c-4.149.86-2.718 6.981 1.622 5.834 3.338-.861 2.385-6.647-1.622-5.834ZM45.62 19.637c-4.053 1.34-2.098 6.79 1.813 5.69 3.577-1.004 2.289-7.029-1.813-5.69ZM22.823 19.59c-4.34 1.29-2.146 6.98 1.813 5.69 3.29-1.005 2.05-6.886-1.813-5.69ZM57.018 19.686c-4.53 1.626-1.478 7.029 2.051 5.546 3.339-1.338 1.67-6.885-2.05-5.546ZM22.202 10.267c-3.195 1.817-.953 6.742 2.719 4.972 3.148-1.53.763-6.933-2.719-4.972ZM102.375 10.314c-3.005 1.96-.811 6.36 2.671 5.02 3.434-1.29.667-7.22-2.671-5.02Z" fill="#000"/><path fill-rule="evenodd" clip-rule="evenodd" d="M22.918.32c-3.577 1.1-2.146 6.168 1.478 5.26 3.434-.86 2.146-6.36-1.478-5.26Z" fill="#ED1C24"/><path fill-rule="evenodd" clip-rule="evenodd" d="m56.876 105.13 2.05.048.43-.717h-2.814l.334.669ZM29.69 146.682l-.81.047.524.861.287-.908ZM97.606 150.412l.81-.191-.524-.717-.286.908ZM28.832 150.22l.858.144-.477-.909-.381.765ZM86.111 150.172l.859.192-.525-.909-.334.717Z" fill="#000"/><path d="M15.908 168.869c-.43-1.482-1.288-2.678-2.528-3.586-1.24-.909-2.671-1.387-4.293-1.387-1.096 0-2.003.287-2.67.813-.668.526-1.002 1.291-1.002 2.2 0 .669.382 1.338 1.097 1.96.715.622 1.908 1.243 3.53 1.913 2.813 1.195 4.769 2.295 5.866 3.203 1.097.956 1.621 2.056 1.621 3.299 0 1.674-.763 2.965-2.29 3.969-1.525.956-3.576 1.482-6.2 1.482-1.43 0-2.813-.287-4.148-.812-.573-.24-1.002-.287-1.384-.24-.381.096-.667.287-.858.67l-.143.239h-.954l-1.097-6.168h.906c.573 1.482 1.574 2.725 3.005 3.682 1.43.956 2.957 1.434 4.626 1.434 1.43 0 2.575-.335 3.434-.956.858-.622 1.288-1.483 1.288-2.582 0-.67-.43-1.387-1.383-2.056-.907-.67-2.385-1.435-4.388-2.296-2.194-.908-3.816-1.864-4.865-2.773-1.05-.956-1.574-1.912-1.574-2.869 0-1.53.668-2.821 1.956-3.777 1.287-1.004 2.957-1.482 5.007-1.482 1.479 0 2.957.286 4.34.812.43.144.811.192 1.24.096.43-.096.716-.239.907-.526l.238-.382h.954l.763 6.168h-1.001v-.048Zm17.074 13.914c-3.625 0-6.63-.956-8.919-2.821-2.337-1.865-3.482-4.255-3.482-7.22s1.145-5.355 3.482-7.22c2.337-1.865 5.294-2.821 8.919-2.821 3.624 0 6.629.956 8.966 2.821 2.29 1.865 3.481 4.303 3.481 7.22s-1.144 5.355-3.481 7.22c-2.337 1.865-5.294 2.821-8.966 2.821Zm0-1.243c2.432 0 4.34-.765 5.77-2.343 1.431-1.578 2.147-3.73 2.147-6.407 0-2.678-.716-4.83-2.147-6.407-1.43-1.578-3.338-2.343-5.77-2.343-2.433 0-4.34.765-5.771 2.343-1.431 1.577-2.146 3.729-2.146 6.407 0 2.725.715 4.829 2.146 6.407 1.43 1.53 3.338 2.343 5.77 2.343Zm17.885-3.443v-10.663c0-1.482-.191-2.438-.62-2.868-.382-.431-1.336-.67-2.814-.765v-.67h10.063c3.386 0 5.961.43 7.678 1.291 1.765.861 2.623 2.152 2.623 3.825 0 1.578-.906 2.821-2.766 3.73-.334.191-.763.335-1.192.478.763.191 1.478.478 2.098.765 2.099 1.004 3.148 2.247 3.148 3.825 0 1.913-.906 3.252-2.67 4.065-1.765.813-4.77 1.243-8.967 1.243H47.48v-.717c1.479-.096 2.433-.335 2.814-.765.382-.335.573-1.291.573-2.774Zm4.053-12.145v5.929h2.957c1.908 0 3.386-.334 4.483-1.004 1.097-.669 1.622-1.626 1.622-2.773 0-1.148-.525-2.104-1.622-2.773-1.096-.67-2.575-1.004-4.483-1.004h-.715c-.906 0-1.526.095-1.812.334-.287.191-.43.622-.43 1.291Zm0 7.268v6.264c0 .717.143 1.148.382 1.339.238.191.858.287 1.764.287h.43c2.432 0 4.197-.335 5.341-.957 1.145-.621 1.717-1.625 1.717-2.964 0-1.291-.572-2.295-1.717-2.965-1.144-.669-2.861-1.004-5.055-1.004H54.92Zm20.031 4.877v-10.663c0-1.482-.19-2.438-.572-2.868-.382-.431-1.335-.67-2.814-.718v-.669H82.44v.669c-1.478.096-2.432.239-2.814.574-.381.287-.62.956-.62 2.008v5.786h11.113v-5.786c0-1.052-.191-1.721-.62-2.008-.382-.287-1.336-.478-2.814-.574v-.669h10.874v.669c-1.479.048-2.433.287-2.814.718-.382.43-.572 1.386-.572 2.868v10.663c0 1.483.19 2.439.572 2.869.382.431 1.335.67 2.814.717v.718H86.684v-.718c1.478-.095 2.432-.239 2.814-.573.381-.287.62-.957.62-2.009v-5.737H79.005v5.737c0 1.052.191 1.722.62 2.009.382.287 1.336.478 2.814.573v.718H71.565v-.718c1.479-.047 2.433-.286 2.814-.717.382-.43.572-1.386.572-2.869Zm27.901 1.004 9.109-16.448h.859l9.395 16.974c.477.861.906 1.387 1.288 1.626.381.239 1.049.383 1.955.43v.718h-9.538v-.718c1.096 0 1.812-.143 2.098-.478.286-.334.239-.86-.191-1.578l-2.051-3.729h-9.347l-1.622 2.964c-.525.957-.62 1.674-.286 2.104.334.431 1.145.67 2.48.765v.717h-7.726v-.717c.906-.095 1.574-.334 2.003-.621.524-.335 1.001-1.004 1.574-2.009Zm8.394-11.714-4.007 7.268h8.013l-4.006-7.268Z" fill="#000"/></svg>